<?xml version="1.0" encoding="iso-8859-1"?>
<!-- Generator: Adobe Illustrator 19.0.0, SVG Export Plug-In . SVG Version: 6.00 Build 0)  -->
<svg version="1.1" id="Capa_1" xmlns="http://www.w3.org/2000/svg" xmlns:xlink="http://www.w3.org/1999/xlink" x="0px" y="0px"
	 viewBox="0 0 440.32 440.32" style="enable-background:new 0 0 440.32 440.32;" xml:space="preserve">
<g>
	<g>
		<path d="M386.67,0H53.656C47.765,0,42.99,4.776,42.99,10.667v388.907c-0.257,14.463,7.334,27.931,19.84,35.2
			c12.536,6.675,27.571,6.675,40.107,0l117.12-66.56l117.547,66.773c6.116,3.47,13.022,5.306,20.053,5.333
			c6.894-0.235,13.629-2.138,19.627-5.547c12.391-7.305,20.013-20.602,20.053-34.987V10.667C397.337,4.776,392.561,0,386.67,0z
			 M64.323,21.333h98.133L64.323,77.867V21.333z M64.323,102.4L203.63,22.827l1.92-1.493h80.64L64.323,147.413V102.4z
			 M64.323,171.947l262.4-149.12l1.707-1.493h47.36v18.56L64.323,217.387V171.947z M375.577,400
			c-0.056,6.625-3.523,12.754-9.173,16.213V416c-5.771,3.491-13.003,3.491-18.773,0l-10.24-5.76l38.187-21.333V400z M375.79,254.72
			l-59.733,33.707c-4.967,3.168-6.425,9.762-3.258,14.729c2.925,4.586,8.832,6.237,13.711,3.831l49.28-27.947v85.333l-59.733,34.347
			l-75.093-42.667l35.627-21.333c5.125-2.946,6.892-9.488,3.947-14.613c-2.945-5.125-9.488-6.892-14.613-3.947L92.057,416.213
			c-5.921,2.901-12.852,2.901-18.773,0c-5.683-3.582-9.018-9.928-8.747-16.64v-17.707l311.253-177.28V254.72z M375.79,180.267
			L64.323,357.333v-45.44L375.79,134.827V180.267z M64.323,287.36v-45.867L375.79,64.427l0.427,45.44L64.323,287.36z"/>
	</g>
</g>
<g>
	<g>
		<path d="M356.221,332.151c-2.925-4.586-8.832-6.237-13.711-3.831l-36.267,21.333c-5.186,2.794-7.125,9.264-4.33,14.45
			c1.907,3.54,5.644,5.706,9.664,5.603l-0.213-0.213c1.859,0.045,3.698-0.396,5.333-1.28l36.267-21.333
			C357.93,343.712,359.389,337.118,356.221,332.151z"/>
	</g>
</g>
<g>
</g>
<g>
</g>
<g>
</g>
<g>
</g>
<g>
</g>
<g>
</g>
<g>
</g>
<g>
</g>
<g>
</g>
<g>
</g>
<g>
</g>
<g>
</g>
<g>
</g>
<g>
</g>
<g>
</g>
</svg>
