<?xml version="1.0" encoding="iso-8859-1"?>
<!-- Generator: Adobe Illustrator 19.0.0, SVG Export Plug-In . SVG Version: 6.00 Build 0)  -->
<svg version="1.1" id="Capa_1" xmlns="http://www.w3.org/2000/svg" xmlns:xlink="http://www.w3.org/1999/xlink" x="0px" y="0px"
	 viewBox="0 0 420.565 420.565" style="enable-background:new 0 0 420.565 420.565;" xml:space="preserve">
<g>
	<g>
		<polygon points="194.496,0.64 192.789,0.64 45.162,85.973 45.162,137.173 285.376,0.64 		"/>
	</g>
</g>
<g>
	<g>
		<path d="M330.816,410.24l13.013,7.467c6.601,3.811,14.733,3.811,21.333,0c6.496-3.749,10.546-10.634,10.667-18.133V384.64
			L330.816,410.24z"/>
	</g>
</g>
<g>
	<g>
		<polygon points="45.162,0 45.162,63.573 156.096,0 		"/>
	</g>
</g>
<g>
	<g>
		<polygon points="45.162,232.533 45.162,283.947 375.829,95.147 375.829,43.947 		"/>
	</g>
</g>
<g>
	<g>
		<polygon points="45.162,306.133 45.162,357.333 375.829,168.747 375.829,117.333 		"/>
	</g>
</g>
<g>
	<g>
		<polygon points="324.202,0.64 321.642,0.64 44.309,158.507 44.309,209.707 375.829,21.973 375.829,0.64 		"/>
	</g>
</g>
<g>
	<g>
		<path d="M312.256,282.667l64-36.267v-55.467L45.162,379.52v20.053c0.031,7.413,3.908,14.279,10.24,18.133
			c6.601,3.811,14.733,3.811,21.333,0l183.467-104.533c4.612-2.444,10.33-0.851,13.013,3.627c2.627,4.469,1.134,10.222-3.335,12.849
			c-0.096,0.057-0.193,0.111-0.291,0.164l-39.893,22.827l81.92,46.933l64-36.48v-93.867l-53.973,30.08
			c-1.431,1.016-3.153,1.54-4.907,1.493c-3.419-0.143-6.541-1.984-8.32-4.907C305.986,291.164,307.671,285.36,312.256,282.667z
			 M338.922,326.827c4.662-2.584,10.534-0.974,13.227,3.627c2.676,4.44,1.246,10.209-3.194,12.885
			c-0.073,0.044-0.146,0.087-0.22,0.128l-37.76,21.333c-1.515,0.8-3.194,1.238-4.907,1.28c-3.507,0.183-6.783-1.749-8.32-4.907
			c-2.327-4.632-0.459-10.274,4.174-12.602c0.308-0.154,0.623-0.292,0.946-0.412h-1.707L338.922,326.827z"/>
	</g>
</g>
<g>
</g>
<g>
</g>
<g>
</g>
<g>
</g>
<g>
</g>
<g>
</g>
<g>
</g>
<g>
</g>
<g>
</g>
<g>
</g>
<g>
</g>
<g>
</g>
<g>
</g>
<g>
</g>
<g>
</g>
</svg>
