<?xml version="1.0" encoding="iso-8859-1"?>
<!-- Generator: Adobe Illustrator 19.0.0, SVG Export Plug-In . SVG Version: 6.00 Build 0)  -->
<svg version="1.1" id="Capa_1" xmlns="http://www.w3.org/2000/svg" xmlns:xlink="http://www.w3.org/1999/xlink" x="0px" y="0px"
	 viewBox="0 0 510.211 510.211" style="enable-background:new 0 0 510.211 510.211;" xml:space="preserve" width="30" height="30">
<g>
	<g>
		<path d="M353.239,106.667V64h-42.667c0-36.267-29.867-64-64-64c-36.267,0-64,27.733-64,64l-2.133,253.867
			c-46.933,36.267-57.6,102.4-21.333,149.333s102.4,57.6,149.333,21.333s57.6-102.4,21.333-149.333
			c-6.4-8.533-12.8-14.933-21.333-21.333V275.2h42.667v-42.667h-42.667v-42.667h42.667V147.2h-42.667l2.133-40.533H353.239z
			 M244.439,467.2c-36.267,0-64-27.733-64-64c0-23.467,12.8-44.8,32-55.467c6.4-4.267,10.667-10.667,10.667-19.2l2.133-266.667
			c0-12.8,8.533-21.333,21.333-21.333c12.8,0,21.333,8.533,21.333,21.333l-2.133,268.8c0,8.533,4.267,14.933,10.667,19.2
			c19.2,10.667,32,32,32,55.467C308.439,439.467,280.706,467.2,244.439,467.2z"/>
	</g>
</g>
<g>
	<g>
		<circle cx="244.439" cy="403.2" r="21.333"/>
	</g>
</g>
<g>
	<g>
		<circle cx="52.439" cy="168.533" r="21.333"/>
	</g>
</g>
<g>
	<g>
		<path d="M116.439,253.867V211.2h-64c-12.8,0-21.333,8.533-21.333,21.333v85.333c0,12.8,8.533,21.333,21.333,21.333h64v-42.667
			H73.772v-42.667H116.439z"/>
	</g>
</g>
<g>
	<g>
		<circle cx="415.106" cy="168.533" r="21.333"/>
	</g>
</g>
<g>
	<g>
		<path d="M479.106,253.867V211.2h-64c-12.8,0-21.333,8.533-21.333,21.333V339.2h42.667v-21.333h21.333V275.2h-21.333v-21.333
			H479.106z"/>
	</g>
</g>
<g>
</g>
<g>
</g>
<g>
</g>
<g>
</g>
<g>
</g>
<g>
</g>
<g>
</g>
<g>
</g>
<g>
</g>
<g>
</g>
<g>
</g>
<g>
</g>
<g>
</g>
<g>
</g>
<g>
</g>
</svg>
