<svg xmlns="http://www.w3.org/2000/svg" width="256" height="256" viewBox="0 0 100 100"><rect width="100" height="100" rx="20" fill="#e76e6e"></rect><path fill="#fff" d="M37.17 64.06L37.17 64.06Q37.17 66.41 36.15 68.11Q35.14 69.80 33.54 70.90L33.54 70.90Q31.93 72.03 29.88 72.56Q27.83 73.09 25.72 73.09L25.72 73.09Q23.07 73.09 20.82 72.36Q18.57 71.64 16.86 70.20L16.86 70.20Q15.14 68.79 14.04 66.74Q12.95 64.69 12.60 62.03L12.60 62.03L5.21 62.03Q5.33 65.70 6.84 68.69Q8.34 71.68 10.92 73.91L10.92 73.91Q13.81 76.48 17.73 77.85Q21.66 79.22 25.72 79.22L25.72 79.22Q29.12 79.22 32.52 78.26Q35.92 77.30 38.61 75.39L38.61 75.39Q41.31 73.52 43.01 70.66Q44.71 67.81 44.71 63.98L44.71 63.98Q44.71 60.20 43.13 57.30Q41.54 54.41 38.96 52.42L38.96 52.42Q36.35 50.27 33.18 48.89Q30.02 47.50 26.86 46.52L26.86 46.52Q24.94 45.94 22.77 45.16Q20.61 44.38 18.77 43.20L18.77 43.20Q16.89 42.03 15.68 40.33Q14.47 38.63 14.43 36.17L14.43 36.17Q14.43 33.91 15.35 32.19Q16.27 30.47 17.83 29.30L17.83 29.30Q19.36 28.13 21.33 27.54Q23.30 26.95 25.37 26.95L25.37 26.95Q27.95 26.95 30 27.75Q32.05 28.55 33.54 30L33.54 30Q35.02 31.45 35.92 33.46Q36.82 35.47 37.13 37.93L37.13 37.93L44.55 37.93Q44.47 34.02 42.87 30.86Q41.27 27.70 38.61 25.47L38.61 25.47Q35.96 23.24 32.52 22.01Q29.08 20.78 25.37 20.78L25.37 20.78Q22.01 20.78 18.69 21.82Q15.37 22.85 12.75 24.84L12.75 24.84Q10.14 26.84 8.52 29.73Q6.89 32.62 6.89 36.29L6.89 36.29Q6.89 39.96 8.52 42.68Q10.14 45.39 12.71 47.38L12.71 47.38Q15.25 49.34 18.36 50.72Q21.46 52.11 24.47 53.09L24.47 53.09Q26.54 53.75 28.79 54.57Q31.04 55.39 32.91 56.60L32.91 56.60Q34.79 57.85 35.98 59.65Q37.17 61.45 37.17 64.06ZM51.46 21.56L58.38 78.44L65.80 78.44L72.75 38.01L73.18 35.59L73.57 37.97L80.49 78.44L87.87 78.44L94.79 21.56L87.95 21.56L83.85 60.70L83.61 63.05L83.18 60.74L76.27 21.56L69.98 21.56L63.11 60.70L62.68 63.05L62.44 60.78L58.34 21.56L51.46 21.56Z"></path></svg>