<svg class="feels-like__icon" height="30" viewBox="0 0 48 48" width="30" xmlns="http://www.w3.org/2000/svg"><g id="Forecast,-temperature,-thermometer,-weather-icon" fill="none" fill-rule="evenodd"><path id="Shape" d="m28 5c2.8485426 0 5 2.38593293 5 5.0067277v21.0962723c.9189546.90668 2 2.6291783 2 4.897 0 3.8659932-3.1340068 7-7 7s-7-3.1340068-7-7c0-2.0865436.9447205-3.8519362 2-4.897v-21.103c0-2.61406707 2.1514574-5 5-5zm0 12c-.5128358 0-1 .4124651-1 1.0067277l.0000889 15.1639466c-1.1652388.4118113-2.0000889 1.5230736-2.0000889 2.8293257 0 1.6568542 1.3431458 3 3 3s3-1.3431458 3-3-1.2337745-2.5834582-2-2.8293257l.0009007-15.1706743c0-.583552-.4880649-1-1.0009007-1zm-8 12c.5522847 0 1 .4477153 1 1 0 .5128358-.4140997 1-1 1h-5c-.5522847 0-1-.4477153-1-1 0-.5128358.4202481-1 1-1zm0-3c.5522847 0 1 .4477153 1 1 0 .5128358-.4258955 1-1 1h-1c-.5522847 0-1-.4477153-1-1 0-.5128358.4194645-1 1-1zm0-4c.5522847 0 1 .4477153 1 1 0 .5128358-.421483 1-1 1h-3c-.5522847 0-1-.4477153-1-1 0-.5128358.4236744-1 1-1zm0-4c.5522847 0 1 .4477153 1 1 0 .5128358-.4096064 1-1 1h-4c-.5522847 0-1-.4477153-1-1 0-.5128358.4069366-.9932723 1-1zm0-4c.5522847 0 1 .4477153 1 1 0 .5128358-.4171884 1-1 1h-2c-.5522847 0-1-.4477153-1-1 0-.5128358.4114512-1 1-1zm0-4c.5522847 0 1 .4477153 1 1 0 .5128358-.4121279 1-1 1h-6c-.5522847 0-1-.4477153-1-1 0-.5128358.4200742-1 1-1z" fill="rgb(70, 69, 85)" fill-rule="nonzero"/></g></svg>