<svg class="humidity__icon" height="30" viewBox="0 0 48 48" width="30" xmlns="http://www.w3.org/2000/svg"><g id="Drop,-humid,-humidity,-precipitation,-water-icon" fill="none" fill-rule="evenodd"><path id="Shape" d="m29 5c3.2554287 0 14 17.3452652 14 24 0 7.7319865-6.2680135 14-14 14-2.5296466 0-4.9025926-.6709149-6.9506044-1.8445111 1.3718343-.8133795 1.6146393-1.0933752 1.9983034-1.1554354.8937017 0 2.4624089-.6129477 2.885119-2.365916.6606253.2550782 1.2858166.3584009 2.0379897.3657205 2.9374012 0 7.0291923-2.3973182 7.0291923-4.9836836.0038476-.7212251-.2507295-1.4438438-.7645806-2.0170002 1.7440701-2.0758336.3395024-4.9220762-2.219245-4.9991742-2.2822135 0-2.4906829 2-3.9869821 2.000142-.2890541-.0028128-2.0463494-1.2570158-2.4623485-1.4515351 1.3162991-2.4625809-.6363594-4.5486069-2.5668448-4.5486069-2.3858773-.1377362-4.6506731 1.9044374-5.0080537 2.0000313-.2801634.0007463-1.9405679-1.2125153-2.3266368-1.4009085 3.1471935-7.7077692 9.876331-17.5991228 12.3346915-17.5991228zm-5.0000003 30.9999997c.552285 0 1 .4477156 1 1 0 .5128361-.397186.9998583-1 1-1.7047375.0741505-2.6837904 2.0000356-4.9973357 2.0000356-2.3373555 0-3.3911183-2.0000081-5.0026643-2.0000356-1.6625572.0000301-2.6118211 2.0000356-5.00000002 2.0000356-1.59938429 0-3.16737688-.7840232-4.69990424-2.2857989-.39446186-.3865466-.40087844-1.0196791-.01433182-1.414141.38654661-.3944618 1.01967907-.4008784 1.41414094-.0143318 1.18876551 1.1649118 2.28743872 1.7142569 3.30009512 1.7142569 1.55950722-.0001625 2.57830962-2.0000678 5.00000002-2.0000208 2.461575.0001813 3.3883697 2.0000349 4.9973154 2.0000244 1.4972644-.0001661 2.5536389-2.0000714 5.0026846-2.0000244zm-18.30009514-3.7142361c1.18875407 1.1649006 2.28742563 1.7142361 3.30009512 1.7142361.55228507 0 1 .4477156 1 1 0 .552285-.44771493 1-1 1-1.59939166 0-3.16738677-.7839973-4.69990424-2.2857633-.39446186-.3865466-.40087844-1.0196791-.01433182-1.414141.38654661-.3944618 1.01967907-.4008784 1.41414094-.0143318zm18.30009544-.2857637c2.2419475-.0000472 3.7025023 2.0000906 5.0097308 2.0000474 1.0064906.0097944 2.1005282-.5372244 3.286985-1.7109561.3926241-.3884132 1.0257799-.3849995 1.414193.0076246.3884132.3926241.3849995 1.0257799-.0076246 1.414193-1.5348148 1.5183535-3.1074438 2.304668-4.713015 2.2890439-2.2711429 0-3.4067208-1.9999528-4.9902692-1.9999528-1.6282968.0000906-2.7048485 1.9999528-4.9973255 2-2.337366-.0000472-3.4063319-1.9999094-5.0026745-2-.5522847 0-1-.4477152-1-1 0-.5522846.4477153-1 1-1 2.4057493.0001811 3.5015806 2 4.9973255 2 1.4987094 0 2.6448035-2.0000472 5.0026745-2zm-10.0000003-4.0000002c.552285 0 1 .4477156 1 1 0 .5128361-.4168362 1-1 1-1.5488998.0000908-2.6814247 1.999953-5.00000002 2-1.59939166 0-3.16738677-.7839973-4.69990424-2.2857633-.39446186-.3865466-.40087844-1.0196791-.01433182-1.414141.38654661-.3944618 1.01967907-.4008784 1.41414094-.0143318 1.18875407 1.1649006 2.28742563 1.7142361 3.30009512 1.7142361 1.58476072.0000908 2.52629822-1.9998577 5.00000002-2zm9.9999993 0c2.3479514.0001423 3.5486618 2 5.0097318 2.0000476 1.0064906.0097944 2.1005282-.5372244 3.286985-1.7109561.3926241-.3884132 1.0257799-.3849995 1.414193.0076246.3884132.3926241.3849995 1.0257799-.0076246 1.414193-1.5348148 1.5183535-3.1074438 2.304668-4.713015 2.2890439-2.1915931 0-3.4954299-1.999953-4.9902693-1.999953-1.593582.0000908-2.7193222 2.0001813-4.9973254 2-.5522828.0014738-1.0011939-.4450425-1.0027407-.9973252-.0014073-.5522828.445109-1.0011939.9973917-1.0026748 1.506229 0 2.5956149-2 5.0026735-2zm.0000007-4c.552285 0 1 .4477156 1 1 0 .5128361-.4009529 1-1 1-1.533764 0-2.7491179 2.0001423-4.9973357 2.0000602-2.3373555-.0000602-3.3967098-2.0000258-5.0026643-2.0000602-1.6445066.0000344-2.6631062 2-5.00000002 2.0000602-1.59938429 0-3.16737688-.7840478-4.69990424-2.2858235-.39446186-.3865466-.40087844-1.0196791-.01433182-1.414141.38654661-.3944618 1.01967907-.4008784 1.41414094-.0143318 1.18876551 1.1649118 2.28743872 1.7142569 3.30009512 1.7142569 1.51097792.0014209 2.60019412-2.0000208 5.00000002-2.0000208 2.3721091 0 3.501694 2.0014417 4.9973154 2.0000244 1.5894642-.0000244 2.4991139-2.0000244 5.0026846-2.0000244z" fill="rgb(70, 69, 85)" fill-rule="nonzero"/></g></svg>