<svg class="pressure__icon" height="30" viewBox="0 0 48 48" width="30" xmlns="http://www.w3.org/2000/svg"><g id="Barometer,-forecast,-pressure,-weather-icon" fill="none" fill-rule="evenodd"><path id="Shape" d="m24 4c11.045695 0 20 8.954305 20 20s-8.954305 20-20 20-20-8.954305-20-20 8.954305-20 20-20zm4.5 28h-1.5c-.5522847 0-1 .4477153-1 1v6c0 .5522847.4477153 1 1 1h1.5c1.3807119 0 2.5-1.1192881 2.5-2.5 0-.7285461-.3207092-1.2611542-.4940279-1.5009967.3032689-.4137259.4940279-.9467186.4940279-1.4990033 0-1.3807119-1.1192881-2.5-2.5-2.5zm-4.5 1c0-.9222502-1.1542664-1.3644714-1.7682213-.6401844l-1.2317787 1.4771844-1.2317787-1.4771844c-.5940897-.704655-1.7683427-.3104171-1.7682213.6401844l-.0001214 6c.0060865.6231995.5284417 1 1.0001214 1s1-.3734741 1-1v-3.237c.1867065.2360033.4293805.6378918 1 .6378918s.8140411-.4018885 1-.6378918v3.237c0 .5833893.4871642 1 1 1s1-.4075165 1-1zm4 3.882c.1332703.0746956.316092.118.5.118.2761424 0 .5.2238576.5.5s-.2238576.5-.5.5h-.5zm.5-2.882c.2761424 0 .5.2238576.5.5s-.2238576.5-.5.5c-.183908 0-.3644867.0383606-.5.117v-1.117zm9.0716689-16.3960004c-.2357575-.4994366-.83175-.7131907-1.3311865-.4774333-.4994366.2357574-.7131907.8317499-.4774333 1.3311865.8108277 1.7176848 1.2369509 3.5987548 1.2369509 5.5422472 0 3.1083511-1.0933092 6.0455044-3.0551222 8.3730232-.3559371.422288-.302149 1.0531642.1201391 1.4091013s1.0531643.302149 1.4091014-.1201391c2.2630628-2.6849252 3.5258817-6.077463 3.5258817-9.6619854 0-2.2402689-.492131-4.4127223-1.4283311-6.3960004zm-13.5716689-8.6039996c-8.2842712 0-15 6.7157288-15 15 0 3.5840823 1.2625075 6.9762332 3.5250657 9.6610172.3559017.422318.9867733.4761591 1.4090913.1202575.422318-.3559017.4761591-.9867733.1202574-1.4090913-1.9613749-2.3273957-3.0544144-5.2642136-3.0544144-8.3721834 0-7.1797017 5.8202983-13 13-13 1.9797505 0 3.8945787.4421969 5.6374938 1.2823878.4974968.2398236 1.0952131.0309382 1.3350368-.4665586.2398236-.4974968.0309383-1.0952131-.4665585-1.3350367-2.0123731-.97008598-4.2238659-1.4807925-6.5059721-1.4807925zm10.9090226 5.4184599c.3964908-.8350437-.4924388-1.7239733-1.3274825-1.3274825l-9.8657961 5.9090226c-2.4514035.1703611-4.6353658 2.1139631-4.715744 4.886l-1.0001214 5.0336218c-.0426795.6472422.5067991 1.1256644 1.0804996 1.0773905l5.0306218-.9970123c2.6050682-.0803782 4.7504469-2.1164344 4.889-4.7315227zm-10.9090226 7.5815401c1.1045695 0 2 .8954305 2 2s-.8954305 2-2 2-2-.8954305-2-2 .8954305-2 2-2z" fill="rgb(70, 69, 85)" fill-rule="nonzero"/></g></svg>