<svg class="visibility__icon" width="30" height="30" version="1.1" id="Capa_1" xmlns="http://www.w3.org/2000/svg" xmlns:xlink="http://www.w3.org/1999/xlink" x="0px" y="0px"
	 viewBox="0 0 512 512" style="enable-background:new 0 0 512 512;" xml:space="preserve" fill="rgb(70, 69, 85)">
<g>
	<g>
		<path d="M168.157,198.812c-27.158,11.591-51.76,28.489-72.957,49.688c-4.387,4.385-4.773,10.226,0,15
			c21.2,21.2,45.8,38.093,72.955,49.684C157.39,296.703,151,277.108,151,256C151,234.89,157.39,215.294,168.157,198.812z"/>
	</g>
</g>
<g>
	<g>
		<path d="M416.8,248.5c-21.202-21.202-45.802-38.095-72.955-49.686C354.611,215.296,361,234.89,361,256
			c0,21.108-6.39,40.703-17.155,57.184C370.999,301.593,395.6,284.7,416.8,263.5C421.187,259.113,421.574,253.274,416.8,248.5z"/>
	</g>
</g>
<g>
	<g>
		<path d="M256,0c-8.291,0-15,6.709-15,15v31c0,8.291,6.709,15,15,15s15-6.709,15-15V15C271,6.709,264.291,0,256,0z"/>
	</g>
</g>
<g>
	<g>
		<path d="M256,451c-8.291,0-15,6.709-15,15v31c0,8.291,6.709,15,15,15s15-6.709,15-15v-31C271,457.709,264.291,451,256,451z"/>
	</g>
</g>
<g>
	<g>
		<path d="M118.114,96.903L96.903,75.692c-5.859-5.859-15.351-5.859-21.211,0c-5.859,5.859-5.859,15.352,0,21.211l21.211,21.211
			c5.859,5.859,15.352,5.859,21.211,0S123.973,102.762,118.114,96.903z"/>
	</g>
</g>
<g>
	<g>
		<path d="M436.308,415.097l-21.211-21.211c-5.859-5.859-15.352-5.859-21.211,0s-5.859,15.352,0,21.211l21.211,21.211
			c5.859,5.859,15.352,5.859,21.211,0S442.167,420.956,436.308,415.097z"/>
	</g>
</g>
<g>
	<g>
		<path d="M46,241H15c-8.291,0-15,6.709-15,15s6.709,15,15,15h31c8.291,0,15-6.709,15-15C61,247.709,54.291,241,46,241z"/>
	</g>
</g>
<g>
	<g>
		<path d="M497,241h-31c-8.291,0-15,6.709-15,15s6.709,15,15,15h31c8.291,0,15-6.709,15-15C512,247.709,505.291,241,497,241z"/>
	</g>
</g>
<g>
	<g>
		<path d="M118.114,393.886c-5.859-5.859-15.352-5.859-21.211,0l-21.211,21.211c-5.859,5.859-5.859,15.351,0,21.211
			c5.859,5.859,15.352,5.859,21.211,0l21.211-21.211C123.973,409.238,123.973,399.745,118.114,393.886z"/>
	</g>
</g>
<g>
	<g>
		<path d="M436.308,75.692c-5.859-5.859-15.352-5.859-21.211,0l-21.211,21.211c-5.859,5.859-5.859,15.352,0,21.211
			s15.352,5.859,21.211,0l21.211-21.211C442.167,91.044,442.167,81.552,436.308,75.692z"/>
	</g>
</g>
<g>
	<g>
		<path d="M256,91c-73.292,0-135.502,48.067-156.953,114.307C143.701,170.237,198.238,151,256,151
			c57.768,0,112.31,19.237,156.956,54.316C391.511,139.071,329.295,91,256,91z"/>
	</g>
</g>
<g>
	<g>
		<path d="M256,361c-57.768,0-112.31-19.237-156.956-54.316C120.489,372.929,182.705,421,256,421
			c73.292,0,135.502-48.067,156.953-114.307C368.299,341.763,313.762,361,256,361z"/>
	</g>
</g>
<g>
	<g>
		<path d="M256,181c-41.422,0-75,33.578-75,75c0,41.42,33.578,75,75,75s75-33.58,75-75C331,214.578,297.422,181,256,181z M256,271
			c-8.276,0-15-6.724-15-15s6.724-15,15-15s15,6.724,15,15S264.276,271,256,271z"/>
	</g>
</g>
<g>
</g>
<g>
</g>
<g>
</g>
<g>
</g>
<g>
</g>
<g>
</g>
<g>
</g>
<g>
</g>
<g>
</g>
<g>
</g>
<g>
</g>
<g>
</g>
<g>
</g>
<g>
</g>
<g>
</g>
</svg>
