<svg class="wind-speed__icon" enable-background="new 0 0 32 32" height="30" viewBox="0 0 32 32" width="30" xmlns="http://www.w3.org/2000/svg" style="transition: transform 500ms ease-out; transform: rotate(var(--wind-degree));">
<path fill="rgb(70, 69, 85)" d="m16 29.1 3.6 1.8c.3.2.7.1 1 0 .3-.2.5-.5.5-.9v-6c0-.3-.1-.6-.4-.8l-3.7-2.7v-8.5h4.2c.4 0 .7-.2.9-.5s.2-.7 0-1l-5.2-9c-.2-.3-.5-.5-.9-.5s-.7.2-.9.5l-5.2 9c-.1.2-.1.3-.1.5s0 .3.1.5c.2.3.5.5.9.5h4.2v8.5l-3.6 2.7c-.3.2-.4.5-.4.8v6c0 .3.2.7.5.9s.7.2 1 0zm-3.5-19.1 3.5-6 3.5 6zm3.5 16.9-3 1.5v-3.9l3-2.3 3 2.3v3.9z"/>
</svg>