<svg class="uv__icon" height="30" viewBox="0 0 48 48" width="30" xmlns="http://www.w3.org/2000/svg">
<g id="Forecast,-hot,-light,-sun,-weather-icon" fill="none" fill-rule="evenodd">
<path id="Shape" d="m28.3778584 4.80555408c.4627584-.29666888 1.1672146-.1583622 1.4280279.38263892l2.3871137 4.618807 5.1955596-.24094856c.5098738-.02371909 1.045389.36129169 1.045389 1.04538896l-.2419486 5.1945596 4.619807 2.3881137c.4507403.2330086.7312937.8796787.3826389 1.4280279l-2.8074459 4.3778584 2.8074459 4.3778584c.2738482.4271616.2278563 1.1136272-.3826389 1.4280279l-4.619807 2.3871137.2419486 5.1955596c.023719.5098738-.3808633 1.0801294-1.045389 1.045389l-5.1955596-.2419486-2.3871137 4.619807c-.2330086.4507403-.8212672.7337252-1.4280279.3826389l-4.3778584-2.8074459-4.3778584 2.8074459c-.4271616.2738482-1.1067302.2144439-1.4280279-.3826389l-2.3881137-4.619807-5.1945596.2419486c-.5098738.023719-1.07256101-.3854714-1.04538896-1.045389l.24094856-5.1955596-4.618807-2.3871137c-.45074026-.2330086-.7474734-.8565607-.38263892-1.4280279l2.80644592-4.3778584-2.80644592-4.3778584c-.2738482-.4271616-.22004383-1.1143138.38263892-1.4280279l4.618807-2.3881137-.24094856-5.1945596c-.02371909-.5098738.37959675-1.07730649 1.04538896-1.04538896l5.1945596.24094856 2.3881137-4.618807c.2330086-.45074026.8592005-.74056116 1.4280279-.38263892l4.3778584 2.80644592zm-4.3778584 8.19444592c-6.0751322 0-11 4.9248678-11 11s4.9248678 11 11 11 11-4.9248678 11-11-4.9248678-11-11-11zm0 2c4.9705627 0 9 4.0294373 9 9s-4.0294373 9-9 9-9-4.0294373-9-9 4.0294373-9 9-9z" fill="rgb(70, 69, 85)" fill-rule="nonzero"/>
</g>
</svg>